# xmcd CD database file
#
# Track frame offsets:
#	187
#	6620
#	28870
#	54062
#	71260
#	93895
#	119575
#	138967
#	161072
#	179265
#	198375
#	244160
#	269555
#
# Disc length: 3768 seconds
#
# Revision: 0
# Processed by: cddbd v1.4PL0 Copyright (c) Steve Scherf et al.
# Submitted via: CDex 1.50beta9
#
DISCID=b50eb60d
DTITLE=KANKAWA - B3
DYEAR=1997
DGENRE=Jazz
TTITLE0=ST.LOUIS BLUES
TTITLE1=STONE FREE
TTITLE2=HEY JOE
TTITLE3=TUFF ENUFF
TTITLE4=INTO MYSTIC
TTITLE5=CAT STREET(CBA Remix)
TTITLE6=TALKIN'BOUT MR.K(M.J.mix)
TTITLE7=IMPRESSIONS
TTITLE8=FAMILY
TTITLE9=TOKYO INFO
TTITLE10=TOKYO
TTITLE11=GREEN ONIONS
TTITLE12=PLANT A TREE,PLANT LOVE
EXTD=YEAR: 1997
EXTT0=
EXTT1=
EXTT2=
EXTT3=
EXTT4=
EXTT5=
EXTT6=
EXTT7=
EXTT8=
EXTT9=
EXTT10=
EXTT11=
EXTT12=
PLAYORDER=
